<svg xmlns="http://www.w3.org/2000/svg" width="24" height="24" viewBox="0 0 24 24"><defs><style>.a{fill:#d81623;}.b{fill:#fff;fill-rule:evenodd;}</style></defs><g transform="translate(-35.35 -184.207)"><rect class="a" width="24" height="24" rx="3" transform="translate(35.35 184.207)"/><path class="b" d="M60.569,199.14a9.414,9.414,0,0,1-8.78-8.78,9.574,9.574,0,0,1,8.78,8.78Zm0,1.5a9.575,9.575,0,0,1-8.78,8.78,9.413,9.413,0,0,1,8.78-8.78Zm-19.064,0a9.413,9.413,0,0,1,8.781,8.78,9.576,9.576,0,0,1-8.781-8.78Zm0-1.5a9.575,9.575,0,0,1,8.781-8.78,9.413,9.413,0,0,1-8.781,8.78Zm3.137.75a10.7,10.7,0,0,1,6.4,6.4,10.7,10.7,0,0,1,6.395-6.4,10.689,10.689,0,0,1-6.395-6.4,10.695,10.695,0,0,1-6.4,6.4Zm6.4-10.978v0A10.979,10.979,0,1,0,62.017,199.89,10.978,10.978,0,0,0,51.037,188.912Z" transform="translate(-3.688 -3.684)"/></g></svg>